<?xml version="1.0" standalone="no"?>
<!DOCTYPE svg PUBLIC "-//W3C//DTD SVG 20010904//EN"
 "http://www.w3.org/TR/2001/REC-SVG-20010904/DTD/svg10.dtd">
<svg version="1.0" xmlns="http://www.w3.org/2000/svg"
 width="1785.000000pt" height="1356.000000pt" viewBox="0 0 1785.000000 1356.000000"
 preserveAspectRatio="xMidYMid meet">
<metadata>
Created by potrace 1.16, written by Peter Selinger 2001-2019
</metadata>
<g transform="translate(0.000000,1356.000000) scale(0.100000,-0.100000)"
fill="#fafafa" stroke="none">
<path d="M7960 13550 c-321 -45 -576 -172 -730 -366 -115 -145 -155 -269 -147
-454 14 -295 150 -511 402 -636 140 -69 219 -86 425 -91 241 -7 500 32 643 95
l44 20 -5 168 c-2 93 -6 170 -7 172 -2 2 -25 -11 -52 -27 -155 -96 -298 -134
-498 -135 -208 -1 -321 35 -433 139 -137 126 -182 352 -105 518 137 292 648
410 1005 231 26 -13 50 -24 53 -24 7 0 5 278 -3 325 -7 39 -8 39 -67 53 -73
16 -433 24 -525 12z"/>
<path d="M9571 13519 c-297 -63 -519 -241 -597 -482 -36 -110 -45 -307 -19
-422 64 -291 316 -515 669 -598 77 -18 123 -21 291 -21 176 0 210 3 280 22
194 54 379 178 477 320 40 58 94 175 114 247 24 90 30 274 10 359 -58 247
-287 461 -586 548 -181 52 -462 64 -639 27z m454 -284 c276 -59 430 -262 395
-523 -25 -191 -107 -309 -263 -383 -87 -40 -162 -52 -297 -46 -188 8 -306 56
-417 169 -89 91 -122 180 -123 329 0 230 133 399 358 453 76 19 260 19 347 1z"/>
<path d="M11787 13100 c-150 -27 -305 -97 -399 -180 -145 -128 -233 -343 -232
-565 1 -168 51 -301 165 -448 180 -231 552 -397 888 -397 160 0 281 29 426
103 112 57 244 190 302 302 110 213 126 394 52 585 -108 280 -394 491 -788
581 -97 22 -337 33 -414 19z m421 -320 c319 -89 488 -317 428 -574 -39 -163
-132 -288 -264 -353 l-76 -38 -135 0 c-128 0 -142 2 -233 34 -179 61 -293 156
-362 301 -28 59 -31 74 -31 165 0 229 109 398 299 463 34 12 72 23 86 26 51
10 217 -4 288 -24z"/>
<path d="M5380 13021 c-369 -124 -880 -322 -880 -342 0 -9 606 -1409 613
-1415 5 -6 327 128 327 135 0 3 -45 121 -100 261 -54 140 -98 256 -96 258 8 7
362 133 516 183 91 29 167 54 169 56 5 3 -68 246 -79 264 -9 14 -224 -53 -523
-162 -104 -38 -191 -68 -193 -66 -6 6 -144 362 -144 372 0 12 264 110 532 196
140 45 197 68 198 79 0 36 -77 255 -91 258 -7 1 -120 -33 -249 -77z"/>
<path d="M3973 12441 c-131 -65 -310 -158 -398 -206 -174 -95 -562 -326 -594
-353 -20 -17 -14 -27 393 -665 227 -356 416 -650 419 -653 2 -3 49 23 103 57
182 115 476 278 729 406 137 69 251 127 253 128 6 5 -119 255 -128 255 -17 0
-455 -222 -629 -319 -90 -51 -165 -90 -166 -89 -12 15 -205 351 -203 353 17
13 248 141 431 237 125 66 227 122 227 124 0 5 -120 247 -125 253 -5 4 -320
-161 -518 -271 -87 -48 -162 -86 -167 -83 -4 3 -36 53 -70 111 -52 89 -60 108
-49 119 25 24 441 248 652 350 113 55 206 103 206 108 1 10 -116 257 -123 257
-2 0 -112 -53 -243 -119z"/>
<path d="M13641 12468 c-11 -24 -161 -338 -335 -698 l-315 -655 157 -80 c124
-63 159 -78 168 -68 6 7 87 158 180 335 l169 321 6 -54 c3 -30 30 -148 59
-264 29 -115 74 -315 100 -443 l46 -233 145 -92 c79 -51 188 -123 242 -161 54
-38 100 -67 102 -65 15 16 -140 772 -210 1023 -14 49 -24 91 -22 92 1 1 99 18
217 38 247 41 469 69 725 91 99 9 181 18 183 20 5 4 -216 155 -403 275 l-159
103 -105 -23 c-311 -65 -760 -185 -843 -225 -27 -13 -48 -22 -48 -20 0 2 75
146 167 321 160 304 166 317 147 331 -24 18 -301 158 -332 167 -19 6 -25 2
-41 -36z"/>
<path d="M2263 11385 c-76 -57 -150 -115 -165 -127 l-27 -23 173 -220 174
-220 -31 -25 c-183 -144 -453 -379 -619 -537 -48 -46 -91 -83 -95 -83 -5 0
-94 90 -198 200 l-190 200 -152 -152 c-84 -84 -152 -156 -151 -160 2 -3 252
-248 557 -543 l553 -537 129 128 c71 71 129 133 129 139 -1 5 -108 122 -239
259 l-237 249 100 95 c194 183 603 533 623 532 4 -1 103 -122 218 -270 116
-148 213 -269 217 -270 13 0 289 213 286 222 -6 16 -903 1248 -910 1248 -3 0
-68 -47 -145 -105z"/>
<path d="M15021 10788 l-464 -622 34 -26 c230 -174 530 -429 777 -660 l154
-143 99 99 c54 54 99 102 99 106 0 17 -449 425 -648 588 l-42 35 125 155 c69
85 130 155 135 155 15 0 232 -183 419 -353 l164 -148 91 94 c50 52 94 100 98
107 8 14 -205 212 -449 418 l-142 120 80 98 c43 54 83 100 88 103 14 9 287
-225 579 -498 101 -94 187 -171 191 -171 3 0 50 46 104 101 l97 101 -143 135
c-207 195 -347 321 -520 465 -149 124 -451 363 -458 363 -2 0 -213 -280 -468
-622z"/>
<path d="M8678 10758 c-2 -13 -18 -29 -44 -42 -68 -35 -145 -95 -162 -128 -9
-17 -27 -43 -39 -58 -13 -15 -23 -35 -23 -43 0 -8 -9 -34 -20 -58 -40 -90 -22
-229 45 -349 32 -55 117 -141 162 -162 49 -23 77 -52 70 -72 -6 -14 -73 -20
-372 -29 -44 -1 -87 -7 -95 -12 -8 -5 -53 -12 -100 -16 -47 -4 -121 -14 -165
-23 -44 -8 -93 -16 -110 -16 -16 0 -59 -9 -93 -20 -35 -11 -81 -20 -103 -20
-21 0 -62 -9 -91 -20 -29 -11 -69 -20 -88 -20 -19 0 -51 -8 -70 -19 -19 -10
-59 -21 -89 -25 -29 -4 -63 -13 -75 -21 -11 -8 -41 -17 -66 -21 -25 -4 -62
-15 -82 -25 -21 -11 -46 -19 -57 -19 -11 0 -41 -9 -66 -20 -25 -11 -65 -29
-90 -40 -25 -11 -51 -20 -57 -20 -11 0 -77 -29 -140 -61 -20 -10 -42 -19 -48
-19 -12 0 -114 -44 -140 -61 -8 -5 -26 -14 -40 -19 -14 -6 -32 -15 -40 -20 -8
-6 -34 -19 -56 -29 -23 -11 -45 -24 -48 -30 -4 -6 -15 -11 -25 -11 -10 0 -26
-9 -36 -20 -10 -11 -25 -20 -34 -20 -9 0 -28 -8 -41 -17 -14 -10 -38 -25 -55
-34 -73 -39 -75 -40 -392 -250 -25 -16 -214 -161 -240 -184 -10 -8 -56 -45
-103 -82 -102 -80 -159 -132 -400 -373 -215 -215 -270 -273 -333 -355 -77 -98
-90 -115 -124 -153 -18 -20 -33 -40 -33 -43 0 -4 -23 -35 -50 -69 -28 -34 -50
-67 -50 -73 0 -5 -17 -30 -37 -56 -39 -47 -45 -56 -77 -112 -10 -19 -24 -37
-31 -41 -7 -4 -16 -19 -19 -33 -4 -15 -22 -48 -40 -74 -18 -26 -37 -58 -41
-72 -4 -13 -16 -35 -26 -48 -11 -13 -19 -29 -19 -36 0 -6 -9 -20 -20 -30 -11
-10 -20 -26 -20 -35 0 -10 -8 -28 -19 -41 -10 -13 -22 -38 -25 -56 -4 -17 -13
-37 -21 -43 -7 -6 -16 -26 -19 -44 -4 -19 -13 -39 -21 -46 -8 -7 -15 -18 -15
-24 0 -6 -11 -32 -25 -58 -14 -26 -25 -56 -25 -66 0 -11 -9 -31 -20 -45 -11
-14 -20 -35 -20 -48 0 -12 -7 -30 -16 -40 -8 -9 -19 -41 -23 -71 -4 -29 -14
-64 -23 -78 -9 -14 -19 -43 -23 -65 -3 -22 -13 -49 -20 -61 -7 -11 -16 -43
-20 -70 -4 -27 -13 -60 -20 -74 -7 -14 -16 -48 -20 -75 -4 -28 -13 -65 -21
-83 -7 -17 -16 -60 -20 -95 -3 -34 -13 -78 -21 -97 -8 -19 -18 -82 -22 -140
l-6 -104 -75 -27 c-41 -15 -88 -28 -103 -28 -15 -1 -45 -10 -67 -21 -22 -11
-50 -20 -62 -20 -13 0 -43 -9 -67 -20 -24 -11 -53 -20 -65 -20 -12 0 -37 -8
-56 -19 -19 -10 -49 -21 -67 -25 -17 -4 -48 -16 -69 -27 -21 -10 -46 -19 -56
-19 -10 0 -37 -9 -60 -19 -24 -10 -65 -28 -93 -39 -134 -53 -163 -65 -197 -83
-20 -10 -43 -19 -51 -19 -8 0 -25 -8 -38 -19 -13 -10 -34 -21 -47 -25 -12 -4
-45 -22 -72 -39 -27 -18 -61 -40 -77 -49 -49 -30 -66 -42 -129 -88 -65 -49
-176 -166 -200 -212 -8 -16 -24 -38 -35 -49 -10 -10 -19 -23 -19 -29 0 -5 -7
-10 -15 -10 -13 0 -15 -27 -15 -185 0 -152 2 -185 14 -185 12 0 30 -22 103
-130 45 -66 117 -134 194 -185 9 -5 60 -40 115 -76 89 -59 147 -90 279 -149
22 -10 65 -30 95 -44 30 -14 60 -26 66 -26 5 0 27 -9 49 -20 22 -11 47 -20 57
-20 10 0 32 -9 50 -20 18 -11 41 -20 50 -20 10 0 37 -9 60 -19 24 -10 79 -29
123 -41 44 -11 100 -28 125 -36 25 -9 64 -19 87 -24 23 -5 58 -16 78 -25 21
-8 46 -15 56 -15 11 0 44 -9 74 -19 31 -11 81 -23 112 -27 32 -4 75 -15 98
-25 22 -10 59 -19 83 -19 24 0 57 -7 73 -16 17 -8 67 -19 112 -24 45 -5 96
-14 112 -21 17 -7 59 -16 95 -20 36 -5 85 -13 110 -19 25 -5 70 -14 100 -20
30 -5 87 -16 125 -24 39 -8 102 -20 140 -25 249 -36 295 -44 340 -56 28 -8 91
-18 140 -21 50 -4 100 -14 112 -21 15 -10 77 -17 207 -23 102 -5 194 -14 206
-20 11 -6 102 -15 203 -20 115 -6 197 -15 218 -24 24 -10 80 -14 186 -15 84
-1 164 -6 179 -11 14 -6 59 -10 99 -10 41 0 84 -4 97 -10 21 -9 315 -26 613
-35 128 -4 200 -11 400 -34 75 -9 109 -10 135 -1 25 8 126 9 340 5 641 -12
2112 2 2142 21 7 5 74 10 148 11 237 4 594 23 626 33 17 6 57 10 90 10 32 0
74 4 93 10 19 5 100 10 180 11 94 1 159 6 184 15 22 8 121 19 224 24 101 6
195 15 210 21 14 5 96 14 182 20 86 5 174 16 196 24 22 8 92 17 155 20 63 4
123 12 134 17 10 6 78 19 150 29 72 11 178 28 236 38 58 11 137 25 175 31 39
7 105 21 148 31 43 10 92 19 110 19 17 0 61 9 95 20 35 11 87 20 115 20 30 0
71 9 96 20 24 11 60 20 80 20 20 1 54 8 76 16 22 9 69 20 104 26 36 5 77 16
93 24 15 8 49 17 75 21 27 3 59 12 73 19 14 7 48 17 75 22 28 6 70 17 95 25
25 9 79 25 120 37 127 37 185 57 232 81 20 10 47 19 60 19 13 0 37 9 54 19 17
10 46 22 65 26 19 4 45 16 58 26 13 11 30 19 38 19 19 0 229 102 276 134 21
14 42 26 47 26 4 0 33 20 63 45 31 25 60 45 66 45 12 0 168 154 199 197 12 17
34 54 48 82 15 28 31 51 35 51 5 0 9 74 9 164 0 136 -3 165 -15 170 -8 3 -15
14 -15 25 0 11 -6 26 -14 33 -7 8 -21 29 -30 47 -33 63 -239 261 -272 261 -4
0 -17 9 -28 19 -20 19 -125 79 -176 102 -14 6 -32 15 -40 20 -8 5 -26 14 -40
20 -14 6 -34 16 -44 21 -34 18 -161 68 -172 68 -6 0 -23 9 -37 20 -14 11 -31
20 -39 20 -7 0 -35 12 -63 25 -27 14 -57 25 -65 25 -9 0 -20 4 -26 10 -9 9
-84 38 -169 64 -22 7 -57 20 -77 29 -21 10 -49 17 -63 17 -14 0 -40 8 -58 17
-18 9 -52 20 -77 24 -25 4 -73 18 -107 30 l-63 22 0 46 c0 25 -9 78 -20 116
-11 38 -20 93 -20 121 0 28 -7 71 -15 95 -9 23 -20 74 -26 113 -6 39 -18 83
-25 98 -8 15 -17 49 -21 75 -3 27 -12 60 -19 74 -7 15 -18 44 -23 65 -12 50
-39 128 -62 180 -11 23 -19 50 -19 60 0 10 -9 33 -20 49 -11 17 -20 38 -20 49
0 10 -8 35 -18 55 -10 20 -28 56 -39 81 -11 25 -33 72 -48 105 -15 33 -31 67
-36 75 -5 8 -18 33 -29 55 -50 99 -87 165 -102 182 -9 10 -20 30 -23 46 -4 15
-11 27 -17 27 -5 0 -14 12 -21 28 -7 15 -29 53 -50 85 -20 31 -37 60 -37 63 0
4 -17 27 -38 53 -21 25 -42 54 -45 65 -4 10 -24 40 -45 67 -56 76 -175 223
-182 229 -4 3 -13 17 -21 32 -35 67 -446 481 -680 685 -94 82 -393 314 -430
333 -13 7 -26 16 -29 19 -5 6 -105 75 -139 96 -9 5 -52 33 -96 61 -44 28 -110
67 -146 86 -37 19 -77 42 -90 51 -13 10 -31 17 -40 17 -9 0 -24 9 -34 20 -10
11 -26 20 -35 20 -10 0 -29 9 -43 20 -14 11 -32 20 -40 20 -8 0 -26 9 -40 20
-14 11 -31 20 -39 20 -7 0 -27 8 -44 19 -17 10 -41 22 -55 26 -25 7 -89 35
-151 66 -20 11 -44 19 -53 19 -9 0 -33 9 -53 19 -20 10 -50 23 -67 29 -63 21
-102 35 -145 53 -25 10 -65 21 -90 25 -24 4 -54 12 -65 19 -11 7 -42 16 -69
20 -27 4 -59 13 -71 21 -13 8 -47 17 -76 20 -30 3 -75 14 -101 25 -26 10 -65
19 -88 19 -22 0 -57 7 -76 15 -19 8 -70 19 -112 25 -42 6 -102 15 -132 21 -30
5 -100 13 -155 17 -55 4 -106 12 -114 17 -19 11 -80 14 -368 21 -137 3 -233 9
-233 15 0 5 -1 12 -1 16 -1 4 24 21 54 38 280 152 357 450 177 680 -49 62
-117 118 -172 142 -16 7 -30 23 -34 38 l-6 25 -143 0 c-140 0 -144 -1 -147
-22z m270 -182 c58 -30 111 -86 143 -152 29 -59 31 -70 26 -132 -7 -90 -43
-161 -109 -212 -27 -22 -57 -40 -67 -40 -9 0 -41 -16 -70 -35 l-53 -35 -52 33
c-28 19 -62 37 -76 40 -37 9 -106 76 -135 132 -23 42 -26 60 -26 137 0 73 4
94 21 118 11 15 20 32 20 37 0 23 118 112 164 124 51 13 177 4 214 -15z m-368
-904 c0 -5 -9 -17 -20 -27 -12 -11 -20 -31 -20 -51 0 -27 7 -38 37 -59 21 -14
45 -25 53 -25 8 0 32 -9 53 -20 75 -41 243 -20 367 45 33 17 46 30 48 50 4 31
-21 72 -51 85 -28 12 353 3 403 -10 83 -20 162 -30 241 -30 57 -1 102 -7 139
-20 30 -11 75 -19 100 -20 25 0 74 -8 110 -19 36 -11 94 -24 130 -30 86 -14
209 -46 335 -86 28 -9 73 -22 100 -30 28 -7 64 -20 80 -29 17 -9 38 -16 48
-16 10 0 35 -9 57 -20 22 -11 47 -20 57 -20 10 0 32 -9 48 -20 17 -11 40 -20
53 -20 13 0 40 -9 60 -19 20 -11 62 -30 92 -44 51 -23 203 -98 275 -135 60
-31 71 -36 107 -54 20 -10 40 -22 43 -28 3 -5 14 -10 24 -10 10 0 26 -9 36
-20 10 -11 23 -20 28 -20 5 0 40 -20 78 -45 38 -25 72 -45 77 -45 5 0 17 -9
27 -20 10 -11 23 -20 30 -20 10 0 41 -20 100 -65 46 -35 122 -91 137 -100 134
-85 516 -417 672 -584 28 -30 89 -93 136 -141 47 -47 103 -110 125 -139 22
-29 67 -84 100 -124 34 -40 74 -92 90 -116 17 -25 41 -56 53 -70 29 -32 82
-109 82 -120 0 -4 11 -20 25 -35 14 -15 25 -36 25 -46 0 -10 6 -23 13 -27 16
-10 67 -86 67 -99 0 -6 9 -19 20 -29 11 -10 20 -25 20 -34 0 -8 10 -31 23 -50
36 -57 42 -68 116 -218 39 -78 71 -147 71 -155 0 -7 9 -26 20 -43 11 -16 20
-38 20 -47 0 -9 7 -24 16 -33 9 -9 21 -37 25 -62 5 -26 16 -54 24 -63 8 -9 15
-27 15 -41 0 -13 7 -37 16 -54 9 -16 22 -54 30 -84 8 -30 19 -60 23 -65 5 -6
12 -38 16 -71 4 -33 13 -72 21 -86 7 -15 18 -56 24 -92 5 -35 16 -80 24 -98 7
-19 17 -68 21 -109 3 -41 13 -92 20 -115 7 -22 16 -76 20 -120 15 -188 20
-231 28 -242 4 -7 8 -176 9 -377 l1 -365 -41 -48 c-43 -51 -126 -133 -136
-133 -3 0 -21 -11 -40 -24 -40 -27 -185 -98 -236 -116 -19 -6 -55 -20 -80 -30
-25 -10 -61 -24 -80 -30 -180 -63 -267 -90 -284 -90 -9 0 -42 -9 -73 -19 -32
-11 -77 -23 -101 -26 -23 -4 -55 -13 -71 -21 -15 -8 -57 -17 -92 -20 -35 -3
-85 -14 -111 -25 -26 -10 -70 -19 -98 -19 -28 0 -64 -7 -80 -15 -16 -8 -75
-20 -131 -26 -56 -5 -114 -16 -128 -23 -14 -8 -69 -17 -121 -21 -52 -4 -104
-12 -114 -17 -11 -6 -54 -15 -95 -20 -130 -16 -203 -26 -282 -37 -41 -6 -118
-15 -170 -21 -51 -5 -155 -17 -229 -25 -74 -9 -158 -15 -186 -15 -27 1 -63 -5
-80 -11 -16 -7 -101 -17 -189 -21 -88 -4 -216 -13 -285 -19 -69 -5 -262 -14
-430 -19 -168 -4 -325 -11 -350 -14 -145 -19 -1142 -23 -1565 -7 -148 6 -405
15 -570 20 -165 6 -345 15 -400 20 -55 6 -181 15 -280 19 -100 5 -193 14 -209
20 -16 7 -47 12 -70 12 -23 -1 -99 6 -171 14 -71 8 -202 22 -290 30 -88 9
-176 20 -195 25 -19 6 -80 15 -135 21 -55 6 -118 15 -140 21 -22 5 -87 16
-145 24 -58 8 -127 21 -154 29 -27 9 -73 16 -102 16 -30 0 -76 9 -104 20 -28
11 -73 20 -101 20 -27 0 -64 7 -82 16 -17 9 -67 21 -110 26 -43 4 -89 14 -100
20 -12 6 -49 17 -82 24 -33 7 -78 19 -100 28 -22 8 -52 15 -66 16 -15 0 -46 9
-70 20 -24 11 -53 20 -64 20 -11 0 -38 9 -60 20 -22 11 -49 19 -59 20 -10 0
-37 8 -60 19 -38 17 -57 24 -141 53 -42 15 -68 26 -85 38 -8 5 -26 15 -40 21
-14 5 -43 21 -65 34 -22 14 -54 31 -70 39 -31 15 -139 121 -169 168 -16 24
-17 59 -11 447 5 347 8 427 21 463 9 24 19 93 24 155 4 66 12 119 20 128 7 8
16 54 21 101 4 47 12 91 19 99 6 7 15 42 21 77 5 34 16 79 24 98 8 19 19 58
24 85 10 54 34 125 63 191 10 22 18 48 18 57 0 9 9 34 20 54 11 21 20 45 20
53 0 8 9 30 20 48 11 18 20 41 20 51 0 17 37 101 61 141 5 8 12 23 16 33 3 10
29 64 58 120 111 217 152 290 178 317 8 8 27 38 43 65 52 90 215 323 260 372
14 15 51 62 82 103 123 163 523 560 734 727 59 48 108 90 108 95 0 4 5 8 11 8
12 0 20 6 146 105 45 36 86 65 91 65 5 0 17 9 27 20 10 11 23 20 30 20 7 0 20
9 30 20 10 11 23 20 30 20 7 0 20 9 30 20 10 11 23 20 28 20 6 0 40 19 76 43
107 69 97 63 332 184 86 45 164 85 175 91 10 6 46 22 79 37 33 15 77 35 97 46
20 10 46 19 58 19 11 0 38 9 60 20 22 11 46 20 55 20 9 0 33 8 53 19 91 46
594 191 664 191 16 0 41 6 56 14 15 8 63 17 107 21 44 4 106 16 137 26 39 13
86 19 145 19 52 0 110 7 143 17 31 9 114 19 190 23 74 3 141 7 148 8 6 1 12
-2 12 -6z m-5039 -4777 l-2 -400 26 -48 c14 -26 34 -57 43 -69 37 -45 157
-158 167 -158 7 0 20 -9 29 -19 17 -19 276 -151 296 -151 6 0 27 -9 47 -20 21
-11 44 -20 51 -20 7 0 30 -9 52 -20 22 -11 52 -20 67 -20 15 0 43 -9 61 -20
18 -11 43 -20 57 -20 13 0 47 -9 75 -20 28 -11 61 -20 74 -20 13 0 43 -7 67
-16 24 -9 71 -22 104 -29 103 -23 198 -46 250 -60 28 -8 77 -17 110 -21 33 -4
72 -13 86 -20 15 -7 64 -16 110 -20 46 -4 96 -13 110 -20 14 -7 77 -18 140
-23 63 -6 132 -17 154 -25 22 -8 68 -15 102 -16 62 0 145 -13 193 -30 14 -5
97 -14 185 -20 88 -6 171 -15 185 -21 23 -9 215 -26 370 -33 36 -2 83 -8 105
-15 22 -6 98 -11 168 -11 77 0 137 -5 150 -11 12 -7 71 -12 146 -12 70 0 136
-3 148 -8 13 -5 168 -11 345 -14 178 -3 366 -10 418 -16 115 -12 1308 -11
1365 1 23 5 183 12 358 15 174 3 328 10 343 15 15 6 67 8 119 5 64 -3 110 0
149 10 37 10 105 15 191 15 73 0 146 5 162 11 15 6 57 12 93 14 175 9 351 25
367 33 10 5 92 15 182 22 91 7 183 19 205 27 23 8 96 18 163 23 67 4 132 14
145 21 12 7 71 16 130 20 59 5 120 15 135 22 15 8 68 17 117 21 49 4 101 13
115 20 14 7 53 16 86 20 33 3 80 13 105 20 25 8 99 27 165 41 66 15 146 36
177 46 32 11 68 19 82 19 13 0 43 9 67 20 24 11 57 20 72 20 15 0 45 9 67 20
22 11 50 20 62 20 13 0 38 9 56 20 18 11 42 20 55 20 12 0 36 9 52 20 17 11
37 20 45 20 21 0 252 118 315 161 43 29 153 132 190 179 7 8 24 41 38 74 l27
58 0 345 c0 303 -2 348 -16 373 -34 57 8 77 88 41 24 -10 61 -23 83 -29 22 -5
56 -15 75 -22 19 -7 59 -21 88 -31 92 -32 166 -60 212 -80 25 -11 66 -23 91
-28 25 -4 70 -23 100 -42 68 -43 86 -54 129 -79 19 -11 47 -28 61 -38 14 -9
46 -30 70 -46 50 -33 149 -132 149 -150 0 -6 10 -29 22 -51 52 -96 8 -226
-117 -347 -11 -11 -56 -43 -100 -71 -111 -72 -117 -76 -145 -88 -14 -6 -32
-15 -40 -20 -8 -5 -26 -14 -40 -20 -14 -6 -34 -16 -44 -21 -33 -17 -161 -68
-171 -68 -6 0 -26 -8 -45 -19 -19 -10 -51 -22 -70 -26 -19 -4 -45 -13 -57 -21
-12 -7 -41 -17 -65 -20 -24 -4 -61 -15 -83 -25 -22 -10 -53 -19 -68 -19 -15 0
-45 -9 -67 -20 -22 -11 -54 -20 -72 -20 -18 -1 -51 -8 -73 -16 -22 -9 -64 -20
-94 -25 -29 -5 -65 -16 -80 -23 -14 -7 -48 -16 -75 -20 -27 -3 -72 -13 -100
-21 -28 -8 -89 -21 -136 -29 -162 -28 -205 -37 -271 -57 -36 -10 -83 -19 -105
-19 -21 0 -73 -9 -114 -20 -41 -11 -95 -20 -120 -20 -25 0 -79 -9 -120 -20
-41 -11 -100 -20 -131 -20 -30 0 -89 -9 -130 -19 -41 -10 -125 -22 -187 -25
-61 -4 -127 -13 -145 -20 -18 -8 -97 -16 -182 -20 -82 -4 -172 -14 -200 -22
-54 -15 -308 -36 -331 -27 -8 3 -36 -2 -62 -10 -31 -11 -126 -19 -287 -27
-132 -6 -260 -16 -285 -22 -25 -7 -130 -13 -235 -15 -104 -2 -199 -6 -210 -9
-56 -19 -505 -26 -1625 -26 -1152 0 -1619 7 -1646 24 -6 4 -103 8 -215 9 -149
1 -213 5 -238 15 -18 8 -67 14 -109 14 -128 0 -405 20 -432 31 -14 6 -90 13
-170 16 -79 2 -176 11 -215 19 -38 9 -144 20 -235 25 -91 6 -185 16 -210 24
-25 8 -92 18 -150 21 -58 4 -120 13 -139 21 -19 7 -75 16 -125 19 -50 4 -122
15 -161 25 -38 11 -94 19 -125 19 -30 0 -84 9 -118 20 -35 11 -85 20 -111 20
-26 0 -72 8 -102 18 -30 11 -81 22 -114 26 -33 4 -82 13 -110 21 -27 7 -75 18
-105 24 -122 21 -342 74 -425 101 -33 11 -73 20 -90 20 -16 1 -48 9 -70 20
-22 11 -53 19 -68 20 -15 0 -44 8 -65 19 -20 10 -56 21 -80 25 -24 3 -53 13
-65 20 -12 8 -40 18 -62 22 -22 3 -47 12 -55 19 -8 7 -26 16 -40 19 -26 7 -98
36 -165 66 -22 10 -51 23 -65 29 -14 6 -32 15 -40 20 -8 5 -26 14 -40 20 -14
6 -33 15 -42 21 -10 5 -24 13 -32 18 -86 46 -266 205 -266 234 0 6 -8 20 -17
30 -22 25 -28 164 -8 199 8 13 20 38 28 54 14 30 134 155 148 155 5 0 29 15
55 33 59 41 104 68 174 102 30 15 72 35 92 46 20 10 43 19 50 19 21 0 121 50
144 71 13 12 44 23 85 28 63 9 83 14 184 52 28 11 62 19 75 19 14 0 39 9 55
20 17 11 41 19 54 18 l23 -3 -1 -400z m-1291 -137 c0 -7 -9 -26 -20 -43 -16
-24 -20 -47 -20 -121 0 -100 18 -155 79 -246 41 -61 195 -208 217 -208 5 0 38
-20 74 -45 36 -25 69 -45 73 -45 5 0 20 -9 34 -20 14 -11 32 -20 40 -20 8 0
26 -9 40 -20 14 -11 35 -20 46 -20 11 0 28 -6 36 -14 16 -14 105 -49 166 -65
17 -4 41 -14 55 -21 13 -7 45 -19 70 -26 56 -16 134 -42 180 -59 71 -27 166
-54 210 -61 25 -4 67 -15 93 -25 26 -11 63 -19 83 -19 19 0 51 -7 72 -16 20
-9 69 -20 109 -24 39 -5 85 -16 101 -24 16 -8 63 -19 104 -24 41 -6 84 -15 96
-21 12 -6 59 -15 104 -20 46 -4 93 -13 104 -19 11 -6 45 -14 75 -17 30 -3 95
-14 144 -25 50 -10 124 -23 165 -29 41 -6 98 -15 125 -20 28 -5 78 -10 112
-10 35 -1 80 -7 100 -15 21 -8 97 -20 168 -27 72 -6 138 -15 147 -20 10 -5 46
-11 80 -14 35 -2 108 -7 163 -10 55 -4 116 -13 135 -20 21 -8 119 -18 240 -25
113 -6 216 -15 230 -21 21 -8 243 -23 495 -33 39 -2 82 -8 96 -14 17 -6 123
-11 277 -11 138 -1 275 -6 304 -12 29 -5 118 -9 198 -8 90 1 156 -2 173 -10
44 -17 2051 -16 2103 2 27 9 83 12 184 10 80 -2 166 1 192 7 26 5 158 10 294
11 145 0 258 5 273 11 14 6 67 12 116 13 184 6 451 25 485 35 19 5 125 15 235
20 111 6 220 17 245 25 41 12 108 19 285 30 33 1 71 7 85 13 14 5 86 15 160
22 74 6 153 18 175 25 22 8 82 17 134 20 51 4 114 13 140 21 25 7 64 14 86 14
22 0 72 7 110 16 39 9 99 20 135 24 36 5 77 13 92 19 15 6 67 15 114 21 48 6
98 17 113 24 14 7 56 16 93 19 37 3 82 14 99 22 17 9 57 19 88 22 31 2 77 13
103 24 26 10 65 19 87 19 22 0 63 9 91 20 28 11 61 20 74 20 24 0 284 80 341
104 17 7 46 17 65 21 19 4 44 13 55 20 11 7 36 16 55 20 19 4 44 13 55 20 11
7 36 16 55 20 19 4 47 16 62 26 14 11 35 19 46 19 10 0 31 9 45 20 14 11 32
20 40 20 8 0 26 9 40 20 14 11 29 20 34 20 4 0 37 20 73 45 36 25 69 45 74 45
13 0 82 58 145 121 52 53 121 149 121 170 0 5 9 27 20 49 31 61 28 158 -7 220
-15 27 -24 52 -20 56 3 4 29 -17 57 -47 27 -30 59 -63 69 -74 11 -11 38 -56
60 -100 36 -71 41 -88 41 -150 -1 -88 -19 -129 -112 -251 -24 -32 -189 -174
-202 -174 -3 0 -30 -16 -61 -35 -30 -20 -63 -38 -73 -42 -9 -3 -24 -12 -32
-18 -8 -7 -49 -27 -90 -45 -41 -17 -93 -40 -115 -50 -22 -11 -67 -29 -100 -41
-33 -12 -76 -30 -96 -40 -20 -11 -46 -19 -58 -19 -12 0 -39 -9 -61 -20 -22
-11 -49 -20 -60 -20 -11 0 -38 -9 -60 -20 -22 -11 -52 -20 -67 -20 -16 0 -45
-9 -66 -20 -20 -11 -49 -20 -64 -20 -16 -1 -46 -8 -68 -16 -22 -9 -71 -22
-110 -29 -38 -7 -90 -20 -115 -28 -52 -18 -155 -44 -220 -57 -25 -4 -58 -14
-75 -20 -16 -7 -55 -16 -85 -21 -30 -5 -75 -13 -100 -19 -25 -6 -74 -15 -110
-20 -36 -5 -85 -16 -109 -24 -24 -9 -62 -16 -86 -16 -23 0 -64 -7 -91 -15 -27
-9 -91 -20 -142 -25 -51 -5 -116 -16 -145 -24 -28 -8 -97 -19 -152 -25 -55 -5
-125 -16 -155 -25 -30 -9 -88 -16 -130 -16 -44 0 -99 -8 -135 -19 -38 -11
-110 -21 -194 -25 -74 -4 -143 -12 -154 -18 -22 -11 -231 -30 -318 -28 -31 0
-74 -6 -95 -14 -36 -14 -91 -18 -378 -31 -44 -2 -91 -9 -105 -14 -14 -5 -105
-13 -201 -16 -156 -6 -282 -12 -585 -30 -501 -30 -2552 -31 -2995 -1 -173 12
-436 25 -590 31 -91 3 -176 10 -190 15 -24 8 -121 15 -365 26 -66 3 -127 11
-152 21 -25 9 -57 13 -77 10 -19 -3 -51 -1 -72 3 -22 5 -79 10 -129 11 -49 1
-105 8 -124 15 -19 8 -92 17 -165 20 -88 4 -150 12 -189 25 -36 12 -85 19
-132 19 -47 0 -97 7 -133 19 -31 10 -97 22 -147 25 -49 4 -123 16 -164 27 -41
10 -98 19 -125 19 -28 0 -83 9 -121 20 -38 11 -86 20 -105 20 -19 0 -67 9
-105 20 -38 11 -83 20 -99 20 -16 0 -64 9 -105 19 -42 10 -123 29 -181 41 -58
13 -131 31 -163 41 -31 11 -68 19 -82 19 -14 0 -42 7 -63 16 -20 8 -68 22
-107 29 -38 7 -88 20 -110 29 -22 8 -52 15 -68 16 -15 0 -44 9 -64 20 -21 11
-50 20 -66 20 -15 0 -45 9 -67 20 -22 11 -49 20 -60 20 -11 0 -38 9 -60 20
-22 11 -50 20 -62 20 -13 0 -36 9 -53 20 -16 11 -37 20 -45 20 -9 0 -33 9 -55
20 -22 11 -46 20 -55 20 -8 0 -37 11 -65 25 -27 13 -54 25 -60 25 -5 0 -21 9
-35 20 -14 11 -32 20 -40 20 -8 0 -26 9 -40 20 -14 11 -31 20 -39 20 -8 0 -23
7 -33 17 -23 20 -53 38 -100 59 -21 10 -38 20 -38 24 0 4 -26 25 -58 48 -59
41 -142 124 -142 141 0 5 -6 16 -13 23 -7 7 -25 39 -40 70 -21 45 -27 71 -27
128 0 65 4 79 41 148 48 89 64 109 142 180 58 52 77 62 77 40z"/>
<path d="M16403 9808 c-230 -221 -480 -462 -556 -536 l-137 -134 77 -82 c95
-99 248 -273 409 -466 269 -323 489 -491 757 -582 118 -40 285 -50 387 -24
196 50 369 183 444 341 46 96 60 163 59 280 -3 282 -152 605 -450 975 -181
225 -543 630 -564 630 -5 0 -197 -181 -426 -402z m541 -145 c102 -114 236
-281 297 -372 283 -420 285 -768 4 -898 -180 -83 -407 -11 -655 208 -77 68
-395 431 -395 451 0 8 700 644 713 647 1 1 17 -16 36 -36z"/>
<path d="M665 9838 c-272 -205 -521 -545 -613 -838 -43 -136 -55 -228 -50
-372 10 -248 103 -417 299 -544 316 -205 697 -127 1035 210 92 93 206 233 288
356 59 87 156 271 156 295 0 12 -229 226 -251 233 -5 2 -9 -5 -9 -17 0 -11
-12 -57 -26 -103 -96 -306 -361 -601 -603 -672 -114 -34 -250 -15 -351 49
-246 155 -265 467 -47 798 111 170 286 320 447 383 38 15 70 28 70 30 0 4
-268 244 -273 244 -2 0 -35 -23 -72 -52z"/>
<path d="M5195 2069 c-2 -8 -99 -336 -215 -729 -116 -393 -213 -722 -215 -731
-4 -13 24 -25 157 -62 89 -26 163 -46 164 -44 6 6 250 921 279 1047 l34 145 0
-107 c1 -59 14 -214 31 -345 38 -306 120 -846 129 -856 7 -7 303 -77 327 -77
25 0 592 889 660 1034 34 72 35 69 9 -44 -11 -52 -180 -1013 -188 -1070 -2
-11 34 -20 163 -41 91 -15 166 -26 166 -25 2 2 232 1531 230 1533 0 1 -103 19
-228 40 l-228 39 -57 -95 c-85 -144 -297 -482 -377 -601 -38 -58 -101 -157
-138 -220 l-68 -115 0 81 c0 45 -20 222 -45 395 -24 173 -55 406 -67 518 -21
183 -25 204 -43 212 -11 4 -114 33 -230 65 -115 31 -218 59 -227 61 -10 3 -20
-1 -23 -8z"/>
<path d="M12205 1994 c-298 -52 -537 -189 -617 -352 -62 -125 -47 -301 35
-408 78 -102 196 -155 411 -185 324 -45 399 -68 430 -134 15 -30 15 -38 3 -67
-28 -65 -104 -111 -247 -149 -117 -32 -340 -32 -445 -1 -38 11 -72 19 -74 16
-7 -7 59 -318 70 -329 18 -18 252 -18 362 0 403 67 652 246 665 476 8 127 -37
247 -118 323 -99 92 -191 120 -553 166 -183 23 -271 70 -271 145 0 65 86 127
244 177 66 20 94 23 230 22 115 0 168 -5 205 -17 27 -9 51 -15 53 -12 2 2 -18
79 -45 172 l-49 168 -105 2 c-57 1 -140 -5 -184 -13z"/>
<path d="M10410 1651 c-123 -16 -125 -17 -123 -41 8 -108 167 -1507 172 -1512
8 -9 310 29 624 77 304 48 352 58 350 76 -1 8 -12 72 -24 142 -23 128 -23 128
-48 123 -123 -25 -602 -98 -608 -93 -2 2 -39 273 -83 603 -45 329 -83 609 -86
622 -5 26 -1 26 -174 3z"/>
<path d="M7400 1637 c0 -1 -38 -341 -85 -755 -47 -413 -85 -760 -85 -771 0
-16 13 -20 103 -30 228 -25 605 -53 898 -67 l146 -7 6 144 c3 79 5 145 4 145
-1 1 -108 7 -237 13 -290 15 -548 35 -556 44 -3 3 2 96 12 207 l18 201 40 -6
c61 -8 462 -35 529 -35 l57 0 0 84 c0 45 3 110 6 143 l7 60 -129 6 c-217 11
-462 30 -473 36 -7 4 -6 51 1 139 l12 132 35 -5 c85 -11 702 -48 707 -42 1 1
5 66 8 144 l7 141 -93 6 c-51 3 -174 11 -273 16 -191 11 -605 47 -642 55 -13
3 -23 4 -23 2z"/>
<path d="M9223 1563 l-131 -4 -27 -72 c-195 -519 -484 -1219 -596 -1438 l-18
-36 61 -7 c33 -3 136 -6 228 -6 l168 0 43 118 c23 64 46 127 50 138 9 24 31
26 454 41 116 4 214 7 218 8 4 0 35 -61 68 -135 34 -74 62 -136 63 -137 2 -3
449 36 452 40 2 1 -40 84 -92 182 -178 336 -437 871 -586 1210 l-44 100 -90 0
c-49 1 -148 0 -221 -2z m222 -675 c64 -160 114 -293 112 -295 -2 -2 -78 -6
-168 -8 -90 -3 -192 -7 -226 -10 l-61 -4 44 132 c55 164 150 470 160 517 l7
35 9 -38 c4 -20 60 -168 123 -329z"/>
</g>
</svg>
